<mxfile host="app.diagrams.net" modified="2023-06-14T17:12:52.875Z" agent="Mozilla/5.0 (Windows NT 10.0; Win64; x64) AppleWebKit/537.36 (KHTML, like Gecko) Chrome/114.0.0.0 Safari/537.36" etag="JSc8aAm-J2FJOjrRKn90" version="21.3.8" type="device">
  <diagram name="Страница 1" id="OkH2eq0tjnWATFnuovGR">
    <mxGraphModel dx="1195" dy="616" grid="1" gridSize="10" guides="1" tooltips="1" connect="1" arrows="1" fold="1" page="1" pageScale="1" pageWidth="827" pageHeight="1169" math="0" shadow="0">
      <root>
        <mxCell id="0" />
        <mxCell id="1" parent="0" />
        <mxCell id="0Vp8-rwsz_vKeEI9S4RF-47" value="" style="rounded=0;whiteSpace=wrap;html=1;fillColor=#CCFFFF;strokeColor=#36393d;" vertex="1" parent="1">
          <mxGeometry x="40" y="8" width="740" height="432" as="geometry" />
        </mxCell>
        <mxCell id="0Vp8-rwsz_vKeEI9S4RF-1" value="" style="shape=actor;whiteSpace=wrap;html=1;fillColor=#d80073;fontColor=#ffffff;strokeColor=#A50040;" vertex="1" parent="1">
          <mxGeometry x="80" y="56" width="80" height="80" as="geometry" />
        </mxCell>
        <mxCell id="0Vp8-rwsz_vKeEI9S4RF-2" value="" style="sketch=0;points=[[0,0,0],[0.25,0,0],[0.5,0,0],[0.75,0,0],[1,0,0],[0,1,0],[0.25,1,0],[0.5,1,0],[0.75,1,0],[1,1,0],[0,0.25,0],[0,0.5,0],[0,0.75,0],[1,0.25,0],[1,0.5,0],[1,0.75,0]];outlineConnect=0;fontColor=#ffffff;gradientDirection=north;fillColor=#d80073;strokeColor=#A50040;dashed=0;verticalLabelPosition=bottom;verticalAlign=top;align=center;html=1;fontSize=12;fontStyle=0;aspect=fixed;shape=mxgraph.aws4.resourceIcon;resIcon=mxgraph.aws4.api_gateway;" vertex="1" parent="1">
          <mxGeometry x="80" y="316" width="80" height="80" as="geometry" />
        </mxCell>
        <mxCell id="0Vp8-rwsz_vKeEI9S4RF-3" value="" style="fontColor=#ffffff;verticalAlign=top;verticalLabelPosition=bottom;labelPosition=center;align=center;html=1;outlineConnect=0;fillColor=#d80073;strokeColor=#A50040;gradientDirection=north;strokeWidth=2;shape=mxgraph.networks.server;" vertex="1" parent="1">
          <mxGeometry x="639.78" y="56" width="80" height="80" as="geometry" />
        </mxCell>
        <mxCell id="0Vp8-rwsz_vKeEI9S4RF-11" value="Resource owner" style="text;html=1;align=center;verticalAlign=middle;resizable=0;points=[];autosize=1;strokeColor=none;fillColor=none;fontSize=21;fontStyle=1" vertex="1" parent="1">
          <mxGeometry x="40" y="8" width="190" height="40" as="geometry" />
        </mxCell>
        <mxCell id="0Vp8-rwsz_vKeEI9S4RF-12" value="" style="shape=flexArrow;endArrow=classic;html=1;rounded=0;fillColor=#dae8fc;strokeColor=#6c8ebf;fontSize=15;labelBackgroundColor=#FFFF66;" edge="1" parent="1">
          <mxGeometry width="50" height="50" relative="1" as="geometry">
            <mxPoint x="110" y="150" as="sourcePoint" />
            <mxPoint x="110" y="300" as="targetPoint" />
            <Array as="points">
              <mxPoint x="110" y="190" />
            </Array>
          </mxGeometry>
        </mxCell>
        <mxCell id="0Vp8-rwsz_vKeEI9S4RF-15" value="&lt;font color=&quot;#000000&quot; style=&quot;font-size: 16px; background-color: rgb(255, 255, 204);&quot;&gt;&amp;nbsp;1&amp;nbsp;&lt;/font&gt;" style="edgeLabel;html=1;align=center;verticalAlign=middle;resizable=0;points=[];fontColor=#E4FDE1;" vertex="1" connectable="0" parent="0Vp8-rwsz_vKeEI9S4RF-12">
          <mxGeometry x="-0.1692" relative="1" as="geometry">
            <mxPoint x="-20" as="offset" />
          </mxGeometry>
        </mxCell>
        <mxCell id="0Vp8-rwsz_vKeEI9S4RF-14" value="Client (app)" style="text;html=1;align=center;verticalAlign=middle;resizable=0;points=[];autosize=1;strokeColor=none;fillColor=none;fontSize=21;fontStyle=1" vertex="1" parent="1">
          <mxGeometry x="50" y="396" width="140" height="40" as="geometry" />
        </mxCell>
        <mxCell id="0Vp8-rwsz_vKeEI9S4RF-17" value="" style="shape=flexArrow;endArrow=classic;html=1;rounded=0;fillColor=#dae8fc;strokeColor=#6c8ebf;fontSize=15;labelBackgroundColor=#FFFF66;" edge="1" parent="1">
          <mxGeometry width="50" height="50" relative="1" as="geometry">
            <mxPoint x="160" y="280" as="sourcePoint" />
            <mxPoint x="600" y="120" as="targetPoint" />
            <Array as="points" />
          </mxGeometry>
        </mxCell>
        <mxCell id="0Vp8-rwsz_vKeEI9S4RF-18" value="&lt;font color=&quot;#000000&quot; style=&quot;font-size: 16px; background-color: rgb(255, 255, 204);&quot;&gt;&amp;nbsp;2&amp;nbsp;&lt;br&gt;&lt;/font&gt;" style="edgeLabel;html=1;align=center;verticalAlign=middle;resizable=0;points=[];fontColor=#E4FDE1;" vertex="1" connectable="0" parent="0Vp8-rwsz_vKeEI9S4RF-17">
          <mxGeometry x="-0.1692" relative="1" as="geometry">
            <mxPoint x="-20" as="offset" />
          </mxGeometry>
        </mxCell>
        <mxCell id="0Vp8-rwsz_vKeEI9S4RF-19" value="" style="shape=flexArrow;endArrow=classic;html=1;rounded=0;fillColor=#dae8fc;strokeColor=#6c8ebf;fontSize=15;labelBackgroundColor=#FFFF66;" edge="1" parent="1">
          <mxGeometry width="50" height="50" relative="1" as="geometry">
            <mxPoint x="610" y="150" as="sourcePoint" />
            <mxPoint x="170" y="320" as="targetPoint" />
            <Array as="points" />
          </mxGeometry>
        </mxCell>
        <mxCell id="0Vp8-rwsz_vKeEI9S4RF-20" value="&lt;font color=&quot;#000000&quot; style=&quot;font-size: 16px; background-color: rgb(255, 255, 204);&quot;&gt;&amp;nbsp;5&amp;nbsp;&lt;br&gt;&lt;/font&gt;" style="edgeLabel;html=1;align=center;verticalAlign=middle;resizable=0;points=[];fontColor=#E4FDE1;" vertex="1" connectable="0" parent="0Vp8-rwsz_vKeEI9S4RF-19">
          <mxGeometry x="-0.1692" relative="1" as="geometry">
            <mxPoint x="-107" y="36" as="offset" />
          </mxGeometry>
        </mxCell>
        <mxCell id="0Vp8-rwsz_vKeEI9S4RF-21" value="" style="sketch=0;pointerEvents=1;shadow=0;dashed=0;html=1;strokeColor=none;labelPosition=center;verticalLabelPosition=bottom;verticalAlign=top;outlineConnect=0;align=center;shape=mxgraph.office.security.key_permissions;fillColor=#FFFF66;fontColor=#E4FDE1;rotation=70;" vertex="1" parent="1">
          <mxGeometry x="380" y="230" width="25" height="53" as="geometry" />
        </mxCell>
        <mxCell id="0Vp8-rwsz_vKeEI9S4RF-24" value="" style="shape=flexArrow;endArrow=classic;html=1;rounded=0;fillColor=#dae8fc;strokeColor=#6c8ebf;fontSize=15;labelBackgroundColor=#FFFF66;" edge="1" parent="1">
          <mxGeometry width="50" height="50" relative="1" as="geometry">
            <mxPoint x="610" y="100" as="sourcePoint" />
            <mxPoint x="170" y="100" as="targetPoint" />
            <Array as="points" />
          </mxGeometry>
        </mxCell>
        <mxCell id="0Vp8-rwsz_vKeEI9S4RF-25" value="&lt;font color=&quot;#000000&quot; style=&quot;font-size: 16px; background-color: rgb(255, 255, 204);&quot;&gt;&amp;nbsp;3&amp;nbsp;&lt;br&gt;&lt;/font&gt;" style="edgeLabel;html=1;align=center;verticalAlign=middle;resizable=0;points=[];fontColor=#E4FDE1;" vertex="1" connectable="0" parent="0Vp8-rwsz_vKeEI9S4RF-24">
          <mxGeometry x="-0.1692" relative="1" as="geometry">
            <mxPoint x="-127" y="20" as="offset" />
          </mxGeometry>
        </mxCell>
        <mxCell id="0Vp8-rwsz_vKeEI9S4RF-26" value="" style="shape=flexArrow;endArrow=classic;html=1;rounded=0;fillColor=#dae8fc;strokeColor=#6c8ebf;fontSize=15;labelBackgroundColor=#FFFF66;" edge="1" parent="1">
          <mxGeometry width="50" height="50" relative="1" as="geometry">
            <mxPoint x="172.5" y="70" as="sourcePoint" />
            <mxPoint x="612.5" y="70" as="targetPoint" />
            <Array as="points" />
          </mxGeometry>
        </mxCell>
        <mxCell id="0Vp8-rwsz_vKeEI9S4RF-27" value="&lt;font color=&quot;#000000&quot; style=&quot;font-size: 16px; background-color: rgb(255, 255, 204);&quot;&gt;&amp;nbsp;4&amp;nbsp;&lt;br&gt;&lt;/font&gt;" style="edgeLabel;html=1;align=center;verticalAlign=middle;resizable=0;points=[];fontColor=#E4FDE1;" vertex="1" connectable="0" parent="0Vp8-rwsz_vKeEI9S4RF-26">
          <mxGeometry x="-0.1692" relative="1" as="geometry">
            <mxPoint x="-55" y="-20" as="offset" />
          </mxGeometry>
        </mxCell>
        <mxCell id="0Vp8-rwsz_vKeEI9S4RF-28" value="" style="sketch=0;aspect=fixed;pointerEvents=1;shadow=0;dashed=0;html=1;strokeColor=#A50040;labelPosition=center;verticalLabelPosition=bottom;verticalAlign=top;align=center;fillColor=#d80073;shape=mxgraph.mscae.enterprise.keyboard;fontColor=#ffffff;" vertex="1" parent="1">
          <mxGeometry x="320" y="20" width="60" height="36" as="geometry" />
        </mxCell>
        <mxCell id="0Vp8-rwsz_vKeEI9S4RF-31" value="Authorization server" style="text;html=1;align=center;verticalAlign=middle;resizable=0;points=[];autosize=1;strokeColor=none;fillColor=none;fontSize=21;fontStyle=1" vertex="1" parent="1">
          <mxGeometry x="560" y="3" width="230" height="40" as="geometry" />
        </mxCell>
        <mxCell id="0Vp8-rwsz_vKeEI9S4RF-34" value="" style="fontColor=#ffffff;verticalAlign=top;verticalLabelPosition=bottom;labelPosition=center;align=center;html=1;outlineConnect=0;fillColor=#d80073;strokeColor=#A50040;gradientDirection=north;strokeWidth=2;shape=mxgraph.networks.server_storage;" vertex="1" parent="1">
          <mxGeometry x="640" y="314" width="94.56" height="96" as="geometry" />
        </mxCell>
        <mxCell id="0Vp8-rwsz_vKeEI9S4RF-35" value="" style="shape=flexArrow;endArrow=classic;html=1;rounded=0;fillColor=#dae8fc;strokeColor=#6c8ebf;fontSize=15;labelBackgroundColor=#FFFF66;" edge="1" parent="1">
          <mxGeometry width="50" height="50" relative="1" as="geometry">
            <mxPoint x="180" y="336" as="sourcePoint" />
            <mxPoint x="610" y="336" as="targetPoint" />
            <Array as="points" />
          </mxGeometry>
        </mxCell>
        <mxCell id="0Vp8-rwsz_vKeEI9S4RF-36" value="&lt;font color=&quot;#000000&quot; style=&quot;font-size: 16px; background-color: rgb(255, 255, 204);&quot;&gt;&amp;nbsp;6&amp;nbsp;&lt;br&gt;&lt;/font&gt;" style="edgeLabel;html=1;align=center;verticalAlign=middle;resizable=0;points=[];fontColor=#E4FDE1;" vertex="1" connectable="0" parent="0Vp8-rwsz_vKeEI9S4RF-35">
          <mxGeometry x="-0.1692" relative="1" as="geometry">
            <mxPoint x="-20" as="offset" />
          </mxGeometry>
        </mxCell>
        <mxCell id="0Vp8-rwsz_vKeEI9S4RF-41" value="" style="shape=flexArrow;endArrow=classic;html=1;rounded=0;fillColor=#dae8fc;strokeColor=#6c8ebf;fontSize=15;labelBackgroundColor=#FFFF66;" edge="1" parent="1">
          <mxGeometry width="50" height="50" relative="1" as="geometry">
            <mxPoint x="607.5" y="380" as="sourcePoint" />
            <mxPoint x="177.5" y="380" as="targetPoint" />
            <Array as="points" />
          </mxGeometry>
        </mxCell>
        <mxCell id="0Vp8-rwsz_vKeEI9S4RF-42" value="&lt;font color=&quot;#000000&quot; style=&quot;font-size: 16px; background-color: rgb(255, 255, 204);&quot;&gt;&amp;nbsp;7&amp;nbsp;&lt;br&gt;&lt;/font&gt;" style="edgeLabel;html=1;align=center;verticalAlign=middle;resizable=0;points=[];fontColor=#E4FDE1;" vertex="1" connectable="0" parent="0Vp8-rwsz_vKeEI9S4RF-41">
          <mxGeometry x="-0.1692" relative="1" as="geometry">
            <mxPoint x="-88" as="offset" />
          </mxGeometry>
        </mxCell>
        <mxCell id="0Vp8-rwsz_vKeEI9S4RF-44" value="" style="html=1;verticalLabelPosition=bottom;align=center;labelBackgroundColor=#ffffff;verticalAlign=top;strokeWidth=2;strokeColor=#A50040;shadow=0;dashed=0;shape=mxgraph.ios7.icons.data;fontColor=#ffffff;fillColor=#d80073;" vertex="1" parent="1">
          <mxGeometry x="372.5" y="396" width="30" height="34" as="geometry" />
        </mxCell>
        <mxCell id="0Vp8-rwsz_vKeEI9S4RF-45" value="Resource server" style="text;html=1;align=center;verticalAlign=middle;resizable=0;points=[];autosize=1;strokeColor=none;fillColor=none;fontSize=21;fontStyle=1" vertex="1" parent="1">
          <mxGeometry x="592.28" y="400" width="190" height="40" as="geometry" />
        </mxCell>
        <mxCell id="0Vp8-rwsz_vKeEI9S4RF-48" value="" style="sketch=0;pointerEvents=1;shadow=0;dashed=0;html=1;strokeColor=#36393d;labelPosition=center;verticalLabelPosition=bottom;verticalAlign=top;outlineConnect=0;align=center;shape=mxgraph.office.security.key_permissions;fillColor=#eeeeee;rotation=70;" vertex="1" parent="1">
          <mxGeometry x="440" y="208" width="25" height="53" as="geometry" />
        </mxCell>
        <mxCell id="0Vp8-rwsz_vKeEI9S4RF-49" value="" style="sketch=0;pointerEvents=1;shadow=0;dashed=0;html=1;strokeColor=none;labelPosition=center;verticalLabelPosition=bottom;verticalAlign=top;outlineConnect=0;align=center;shape=mxgraph.office.security.key_permissions;fillColor=#FFFF66;fontColor=#E4FDE1;rotation=90;" vertex="1" parent="1">
          <mxGeometry x="370" y="290" width="25" height="53" as="geometry" />
        </mxCell>
        <mxCell id="0Vp8-rwsz_vKeEI9S4RF-50" value="id token" style="html=1;dashed=0;whiteSpace=wrap;strokeColor=#666666;fillColor=#f5f5f5;fontColor=#333333;rotation=-20;" vertex="1" parent="1">
          <mxGeometry x="435" y="248.5" width="54" height="20" as="geometry" />
        </mxCell>
        <mxCell id="0Vp8-rwsz_vKeEI9S4RF-51" value="" style="sketch=0;pointerEvents=1;shadow=0;dashed=0;html=1;strokeColor=#36393d;labelPosition=center;verticalLabelPosition=bottom;verticalAlign=top;outlineConnect=0;align=center;shape=mxgraph.office.security.key_permissions;fillColor=#eeeeee;rotation=90;" vertex="1" parent="1">
          <mxGeometry x="50" y="347.75" width="15" height="28.5" as="geometry" />
        </mxCell>
      </root>
    </mxGraphModel>
  </diagram>
</mxfile>
